<svg data-v-423bf9ae="" xmlns="http://www.w3.org/2000/svg" viewBox="0 0 1685.7646803190432 193" class="fontAboveSlogan"><!----><!----><!----><g data-v-423bf9ae="" id="1c54e3ff-1588-4956-ba84-d1dd21f13979" fill="#ffffff" transform="matrix(10.195411682128906,0,0,10.195411682128906,320.6434326171875,-31.321868896484375)"><path d="M9.18 8.79L9.18 8.79L9.18 8.79Q9.18 8.34 9.12 8.05L9.12 8.05L9.12 8.05Q9.06 7.75 8.99 7.56L8.99 7.56L8.99 7.56Q8.91 7.36 8.85 7.24L8.85 7.24L8.85 7.24Q8.79 7.11 8.79 7L8.79 7L8.79 7Q8.79 6.90 8.87 6.83L8.87 6.83L8.87 6.83Q8.96 6.76 9.07 6.71L9.07 6.71L9.07 6.71Q9.18 6.67 9.30 6.64L9.30 6.64L9.30 6.64Q9.42 6.62 9.50 6.62L9.50 6.62L9.50 6.62Q9.69 6.62 9.78 6.68L9.78 6.68L9.78 6.68Q9.87 6.73 9.93 6.89L9.93 6.89L9.93 6.89Q9.99 7.09 10.01 7.41L10.01 7.41L10.01 7.41Q10.04 7.74 10.04 8.11L10.04 8.11L10.04 8.11Q10.04 8.63 9.97 9.26L9.97 9.26L9.97 9.26Q9.91 9.89 9.78 10.53L9.78 10.53L9.78 10.53Q9.65 11.16 9.44 11.76L9.44 11.76L9.44 11.76Q9.23 12.35 8.93 12.81L8.93 12.81L8.93 12.81Q8.64 13.28 8.26 13.55L8.26 13.55L8.26 13.55Q7.88 13.83 7.39 13.83L7.39 13.83L7.39 13.83Q7.01 13.83 6.70 13.68L6.70 13.68L6.70 13.68Q6.40 13.52 6.16 13.25L6.16 13.25L6.16 13.25Q5.92 12.99 5.74 12.63L5.74 12.63L5.74 12.63Q5.56 12.27 5.42 11.86L5.42 11.86L5.42 11.86Q5.26 12.28 5.06 12.64L5.06 12.64L5.06 12.64Q4.85 13.00 4.60 13.26L4.60 13.26L4.60 13.26Q4.35 13.53 4.05 13.68L4.05 13.68L4.05 13.68Q3.75 13.83 3.40 13.83L3.40 13.83L3.40 13.83Q2.97 13.83 2.64 13.64L2.64 13.64L2.64 13.64Q2.31 13.45 2.06 13.13L2.06 13.13L2.06 13.13Q1.80 12.80 1.62 12.37L1.62 12.37L1.62 12.37Q1.44 11.94 1.30 11.46L1.30 11.46L1.30 11.46Q1.17 10.99 1.08 10.48L1.08 10.48L1.08 10.48Q0.99 9.97 0.93 9.50L0.93 9.50L0.93 9.50Q0.87 9.03 0.83 8.62L0.83 8.62L0.83 8.62Q0.79 8.21 0.75 7.91L0.75 7.91L0.75 7.91Q0.70 7.64 0.60 7.49L0.60 7.49L0.60 7.49Q0.51 7.33 0.29 7.33L0.29 7.33L0.29 7.33Q0.18 7.33 0.10 7.38L0.10 7.38L0.10 7.38Q0.01 7.42-0.08 7.49L-0.08 7.49L-0.23 7.32L-0.23 7.32Q-0.07 7.19 0.13 7.06L0.13 7.06L0.13 7.06Q0.32 6.94 0.55 6.84L0.55 6.84L0.55 6.84Q0.77 6.75 1.03 6.69L1.03 6.69L1.03 6.69Q1.29 6.62 1.58 6.62L1.58 6.62L1.58 6.62Q1.99 6.62 2.24 6.76L2.24 6.76L2.24 6.76Q2.50 6.90 2.64 7.11L2.64 7.11L2.64 7.11Q2.79 7.32 2.85 7.56L2.85 7.56L2.85 7.56Q2.91 7.80 2.94 7.99L2.94 7.99L2.94 7.99Q3.06 9.02 3.18 9.81L3.18 9.81L3.18 9.81Q3.30 10.60 3.44 11.13L3.44 11.13L3.44 11.13Q3.58 11.66 3.74 11.93L3.74 11.93L3.74 11.93Q3.90 12.20 4.12 12.20L4.12 12.20L4.12 12.20Q4.26 12.20 4.40 12.07L4.40 12.07L4.40 12.07Q4.53 11.95 4.66 11.73L4.66 11.73L4.66 11.73Q4.78 11.51 4.89 11.20L4.89 11.20L4.89 11.20Q5.00 10.89 5.08 10.51L5.08 10.51L5.08 10.51Q5.01 10.14 4.96 9.77L4.96 9.77L4.96 9.77Q4.92 9.40 4.88 9.06L4.88 9.06L4.88 9.06Q4.84 8.72 4.81 8.43L4.81 8.43L4.81 8.43Q4.77 8.13 4.73 7.91L4.73 7.91L4.73 7.91Q4.63 7.27 4.85 6.95L4.85 6.95L4.85 6.95Q5.07 6.62 5.74 6.62L5.74 6.62L5.74 6.62Q6.04 6.62 6.24 6.68L6.24 6.68L6.24 6.68Q6.44 6.73 6.57 6.87L6.57 6.87L6.57 6.87Q6.71 7.01 6.79 7.25L6.79 7.25L6.79 7.25Q6.87 7.49 6.92 7.87L6.92 7.87L6.92 7.87Q7.05 8.89 7.17 9.70L7.17 9.70L7.17 9.70Q7.29 10.51 7.43 11.06L7.43 11.06L7.43 11.06Q7.57 11.61 7.73 11.90L7.73 11.90L7.73 11.90Q7.89 12.20 8.11 12.20L8.11 12.20L8.11 12.20Q8.34 12.20 8.54 11.91L8.54 11.91L8.54 11.91Q8.74 11.62 8.88 11.15L8.88 11.15L8.88 11.15Q9.02 10.68 9.10 10.06L9.10 10.06L9.10 10.06Q9.18 9.45 9.18 8.79ZM14.38 11.85L14.38 10.18L14.38 10.18Q14.38 10.01 14.27 9.92L14.27 9.92L14.27 9.92Q14.16 9.83 13.99 9.83L13.99 9.83L13.99 9.83Q13.75 9.83 13.53 9.94L13.53 9.94L13.53 9.94Q13.32 10.05 13.15 10.26L13.15 10.26L13.15 10.26Q12.99 10.47 12.89 10.78L12.89 10.78L12.89 10.78Q12.80 11.09 12.80 11.50L12.80 11.50L12.80 11.50Q12.80 11.90 12.85 12.16L12.85 12.16L12.85 12.16Q12.91 12.42 13.01 12.57L13.01 12.57L13.01 12.57Q13.11 12.73 13.24 12.79L13.24 12.79L13.24 12.79Q13.37 12.85 13.51 12.85L13.51 12.85L13.51 12.85Q13.69 12.85 13.85 12.76L13.85 12.76L13.85 12.76Q14.01 12.67 14.12 12.52L14.12 12.52L14.12 12.52Q14.24 12.38 14.31 12.20L14.31 12.20L14.31 12.20Q14.38 12.02 14.38 11.85L14.38 11.85ZM13.29 7.18L13.29 7.18L13.29 7.18Q13.06 7.18 12.86 7.24L12.86 7.24L12.86 7.24Q12.66 7.29 12.52 7.38L12.52 7.38L12.52 7.38Q12.37 7.46 12.29 7.56L12.29 7.56L12.29 7.56Q12.21 7.66 12.21 7.75L12.21 7.75L12.21 7.75Q12.21 7.85 12.31 7.89L12.31 7.89L12.31 7.89Q12.42 7.94 12.55 7.99L12.55 7.99L12.55 7.99Q12.68 8.05 12.79 8.16L12.79 8.16L12.79 8.16Q12.89 8.26 12.89 8.48L12.89 8.48L12.89 8.48Q12.89 8.63 12.83 8.75L12.83 8.75L12.83 8.75Q12.78 8.87 12.68 8.96L12.68 8.96L12.68 8.96Q12.58 9.05 12.44 9.10L12.44 9.10L12.44 9.10Q12.31 9.15 12.17 9.15L12.17 9.15L12.17 9.15Q11.79 9.15 11.55 8.89L11.55 8.89L11.55 8.89Q11.31 8.63 11.31 8.20L11.31 8.20L11.31 8.20Q11.31 7.79 11.53 7.49L11.53 7.49L11.53 7.49Q11.75 7.19 12.10 7L12.10 7L12.10 7Q12.46 6.81 12.90 6.72L12.90 6.72L12.90 6.72Q13.34 6.62 13.79 6.62L13.79 6.62L13.79 6.62Q14.32 6.62 14.81 6.74L14.81 6.74L14.81 6.74Q15.29 6.86 15.66 7.11L15.66 7.11L15.66 7.11Q16.04 7.36 16.26 7.75L16.26 7.75L16.26 7.75Q16.48 8.14 16.48 8.70L16.48 8.70L16.48 12.56L16.48 12.56Q16.48 12.62 16.49 12.69L16.49 12.69L16.49 12.69Q16.50 12.77 16.52 12.83L16.52 12.83L16.52 12.83Q16.55 12.89 16.60 12.93L16.60 12.93L16.60 12.93Q16.66 12.97 16.76 12.97L16.76 12.97L16.76 12.97Q16.88 12.97 16.99 12.88L16.99 12.88L16.99 12.88Q17.10 12.79 17.18 12.69L17.18 12.69L17.35 12.84L17.35 12.84Q17.25 12.98 17.10 13.15L17.10 13.15L17.10 13.15Q16.96 13.32 16.75 13.47L16.75 13.47L16.75 13.47Q16.55 13.62 16.28 13.73L16.28 13.73L16.28 13.73Q16.00 13.83 15.65 13.83L15.65 13.83L15.65 13.83Q15.22 13.83 14.89 13.57L14.89 13.57L14.89 13.57Q14.55 13.32 14.45 12.78L14.45 12.78L14.45 12.78Q14.23 13.08 14.00 13.28L14.00 13.28L14.00 13.28Q13.76 13.47 13.51 13.60L13.51 13.60L13.51 13.60Q13.27 13.72 13.02 13.77L13.02 13.77L13.02 13.77Q12.77 13.83 12.52 13.83L12.52 13.83L12.52 13.83Q12.19 13.83 11.88 13.73L11.88 13.73L11.88 13.73Q11.57 13.62 11.33 13.40L11.33 13.40L11.33 13.40Q11.09 13.18 10.94 12.82L10.94 12.82L10.94 12.82Q10.79 12.47 10.79 11.96L10.79 11.96L10.79 11.96Q10.79 11.33 11.04 10.94L11.04 10.94L11.04 10.94Q11.29 10.54 11.69 10.27L11.69 10.27L11.69 10.27Q12.09 10.00 12.60 9.81L12.60 9.81L12.60 9.81Q13.10 9.62 13.64 9.41L13.64 9.41L13.64 9.41Q14.03 9.25 14.22 8.94L14.22 8.94L14.22 8.94Q14.40 8.63 14.40 8.30L14.40 8.30L14.40 8.30Q14.40 7.79 14.10 7.49L14.10 7.49L14.10 7.49Q13.80 7.18 13.29 7.18ZM22.29 10.32L22.29 10.32L22.29 10.32Q22.29 9.45 22.21 8.94L22.21 8.94L22.21 8.94Q22.13 8.42 22.00 8.15L22.00 8.15L22.00 8.15Q21.88 7.88 21.72 7.80L21.72 7.80L21.72 7.80Q21.56 7.71 21.40 7.71L21.40 7.71L21.40 7.71Q21.20 7.71 21.04 7.82L21.04 7.82L21.04 7.82Q20.89 7.92 20.78 8.06L20.78 8.06L20.78 8.06Q20.67 8.20 20.59 8.33L20.59 8.33L20.59 8.33Q20.51 8.47 20.45 8.54L20.45 8.54L20.45 13.10L20.45 13.10Q20.45 13.19 20.43 13.32L20.43 13.32L20.43 13.32Q20.40 13.45 20.29 13.56L20.29 13.56L20.29 13.56Q20.19 13.67 19.98 13.75L19.98 13.75L19.98 13.75Q19.77 13.83 19.41 13.83L19.41 13.83L19.41 13.83Q19.04 13.83 18.84 13.74L18.84 13.74L18.84 13.74Q18.63 13.66 18.52 13.54L18.52 13.54L18.52 13.54Q18.41 13.43 18.38 13.30L18.38 13.30L18.38 13.30Q18.35 13.18 18.35 13.10L18.35 13.10L18.35 7.83L18.35 7.83Q18.35 7.63 18.26 7.48L18.26 7.48L18.26 7.48Q18.17 7.33 17.95 7.33L17.95 7.33L17.95 7.33Q17.83 7.33 17.75 7.38L17.75 7.38L17.75 7.38Q17.67 7.42 17.58 7.49L17.58 7.49L17.43 7.32L17.43 7.32Q17.59 7.19 17.78 7.06L17.78 7.06L17.78 7.06Q17.98 6.94 18.20 6.84L18.20 6.84L18.20 6.84Q18.43 6.75 18.69 6.69L18.69 6.69L18.69 6.69Q18.95 6.62 19.24 6.62L19.24 6.62L19.24 6.62Q19.68 6.62 19.93 6.77L19.93 6.77L19.93 6.77Q20.17 6.92 20.29 7.12L20.29 7.12L20.29 7.12Q20.41 7.33 20.43 7.55L20.43 7.55L20.43 7.55Q20.45 7.77 20.45 7.92L20.45 7.92L20.45 7.92Q20.71 7.56 21.03 7.27L21.03 7.27L21.03 7.27Q21.16 7.15 21.32 7.03L21.32 7.03L21.32 7.03Q21.48 6.92 21.66 6.83L21.66 6.83L21.66 6.83Q21.84 6.73 22.04 6.68L22.04 6.68L22.04 6.68Q22.24 6.62 22.46 6.62L22.46 6.62L22.46 6.62Q22.92 6.62 23.28 6.80L23.28 6.80L23.28 6.80Q23.64 6.98 23.88 7.40L23.88 7.40L23.88 7.40Q24.13 7.81 24.26 8.50L24.26 8.50L24.26 8.50Q24.39 9.19 24.39 10.21L24.39 10.21L24.39 10.21Q24.39 11.20 24.21 11.93L24.21 11.93L24.21 11.93Q24.04 12.66 23.75 13.17L23.75 13.17L23.75 13.17Q23.46 13.69 23.10 14.01L23.10 14.01L23.10 14.01Q22.74 14.33 22.37 14.52L22.37 14.52L22.37 14.52Q22.00 14.70 21.66 14.78L21.66 14.78L21.66 14.78Q21.32 14.85 21.08 14.85L21.08 14.85L21 14.57L21 14.57Q21.21 14.53 21.38 14.42L21.38 14.42L21.38 14.42Q21.55 14.32 21.70 14.12L21.70 14.12L21.70 14.12Q21.84 13.92 21.95 13.62L21.95 13.62L21.95 13.62Q22.06 13.32 22.14 12.86L22.14 12.86L22.14 12.86Q22.22 12.40 22.25 11.77L22.25 11.77L22.25 11.77Q22.29 11.15 22.29 10.32ZM29.60 10.01L29.60 10.01L29.60 10.01Q29.60 9.93 29.60 9.70L29.60 9.70L29.60 9.70Q29.60 9.47 29.59 9.18L29.59 9.18L29.59 9.18Q29.57 8.88 29.54 8.54L29.54 8.54L29.54 8.54Q29.50 8.21 29.43 7.92L29.43 7.92L29.43 7.92Q29.26 7.71 29.06 7.54L29.06 7.54L29.06 7.54Q28.86 7.38 28.55 7.38L28.55 7.38L28.55 7.38Q28.01 7.38 27.76 8.07L27.76 8.07L27.76 8.07Q27.51 8.77 27.51 10.23L27.51 10.23L27.51 10.23Q27.51 10.88 27.57 11.41L27.57 11.41L27.57 11.41Q27.63 11.94 27.75 12.33L27.75 12.33L27.75 12.33Q27.87 12.71 28.06 12.92L28.06 12.92L28.06 12.92Q28.25 13.13 28.51 13.13L28.51 13.13L28.51 13.13Q29.60 13.13 29.60 10.01ZM29.52 7L29.52 7L29.52 7Q29.39 6.32 29.16 5.73L29.16 5.73L29.16 5.73Q28.92 5.13 28.60 4.70L28.60 4.70L28.60 4.70Q28.27 4.27 27.86 4.03L27.86 4.03L27.86 4.03Q27.45 3.78 26.97 3.78L26.97 3.78L26.97 3.78Q26.69 3.78 26.47 3.85L26.47 3.85L26.47 3.85Q26.25 3.92 26.09 4.01L26.09 4.01L26.09 4.01Q25.92 4.10 25.82 4.19L25.82 4.19L25.82 4.19Q25.71 4.27 25.66 4.31L25.66 4.31L25.48 4.07L25.48 4.07Q25.65 3.86 25.88 3.68L25.88 3.68L25.88 3.68Q26.12 3.49 26.40 3.36L26.40 3.36L26.40 3.36Q26.68 3.23 26.99 3.16L26.99 3.16L26.99 3.16Q27.30 3.08 27.61 3.08L27.61 3.08L27.61 3.08Q28.62 3.08 29.39 3.52L29.39 3.52L29.39 3.52Q30.15 3.96 30.67 4.77L30.67 4.77L30.67 4.77Q31.18 5.58 31.44 6.72L31.44 6.72L31.44 6.72Q31.70 7.86 31.70 9.26L31.70 9.26L31.70 9.26Q31.70 10.38 31.47 11.24L31.47 11.24L31.47 11.24Q31.24 12.09 30.82 12.67L30.82 12.67L30.82 12.67Q30.39 13.25 29.79 13.54L29.79 13.54L29.79 13.54Q29.18 13.83 28.42 13.83L28.42 13.83L28.42 13.83Q27.90 13.83 27.35 13.64L27.35 13.64L27.35 13.64Q26.81 13.45 26.37 13.03L26.37 13.03L26.37 13.03Q25.93 12.61 25.65 11.92L25.65 11.92L25.65 11.92Q25.37 11.23 25.37 10.23L25.37 10.23L25.37 10.23Q25.37 9.37 25.61 8.70L25.61 8.70L25.61 8.70Q25.85 8.03 26.26 7.57L26.26 7.57L26.26 7.57Q26.67 7.11 27.21 6.87L27.21 6.87L27.21 6.87Q27.75 6.62 28.36 6.62L28.36 6.62L28.36 6.62Q28.59 6.62 28.77 6.66L28.77 6.66L28.77 6.66Q28.96 6.70 29.09 6.75L29.09 6.75L29.09 6.75Q29.23 6.81 29.33 6.87L29.33 6.87L29.33 6.87Q29.44 6.94 29.52 7ZM37.47 8.99L34.77 10.58L34.77 10.58Q34.77 10.80 34.83 11.06L34.83 11.06L34.83 11.06Q34.90 11.31 35.02 11.57L35.02 11.57L35.02 11.57Q35.14 11.83 35.32 12.07L35.32 12.07L35.32 12.07Q35.51 12.30 35.74 12.49L35.74 12.49L35.74 12.49Q35.98 12.67 36.26 12.78L36.26 12.78L36.26 12.78Q36.55 12.89 36.89 12.89L36.89 12.89L36.89 12.89Q37.13 12.89 37.34 12.84L37.34 12.84L37.34 12.84Q37.54 12.78 37.72 12.69L37.72 12.69L37.72 12.69Q37.90 12.59 38.06 12.47L38.06 12.47L38.06 12.47Q38.23 12.34 38.39 12.20L38.39 12.20L38.56 12.36L38.56 12.36Q38.40 12.57 38.16 12.82L38.16 12.82L38.16 12.82Q37.91 13.08 37.56 13.30L37.56 13.30L37.56 13.30Q37.21 13.52 36.75 13.67L36.75 13.67L36.75 13.67Q36.29 13.82 35.69 13.82L35.69 13.82L35.69 13.82Q35.10 13.82 34.53 13.60L34.53 13.60L34.53 13.60Q33.97 13.38 33.53 12.95L33.53 12.95L33.53 12.95Q33.09 12.52 32.83 11.88L32.83 11.88L32.83 11.88Q32.57 11.24 32.57 10.38L32.57 10.38L32.57 10.38Q32.57 9.75 32.72 9.24L32.72 9.24L32.72 9.24Q32.88 8.72 33.15 8.30L33.15 8.30L33.15 8.30Q33.42 7.88 33.78 7.57L33.78 7.57L33.78 7.57Q34.14 7.25 34.54 7.04L34.54 7.04L34.54 7.04Q34.93 6.84 35.35 6.73L35.35 6.73L35.35 6.73Q35.76 6.62 36.14 6.62L36.14 6.62L36.14 6.62Q36.65 6.62 37.02 6.73L37.02 6.73L37.02 6.73Q37.40 6.84 37.65 7.03L37.65 7.03L37.65 7.03Q37.90 7.21 38.02 7.45L38.02 7.45L38.02 7.45Q38.14 7.70 38.14 7.96L38.14 7.96L38.14 7.96Q38.14 8.29 37.96 8.54L37.96 8.54L37.96 8.54Q37.78 8.80 37.47 8.99L37.47 8.99ZM34.70 10.02L36.14 9.19L36.14 9.19Q36.23 9.14 36.29 9.09L36.29 9.09L36.29 9.09Q36.35 9.04 36.38 8.97L36.38 8.97L36.38 8.97Q36.42 8.89 36.43 8.79L36.43 8.79L36.43 8.79Q36.45 8.68 36.45 8.52L36.45 8.52L36.45 8.52Q36.45 8.35 36.41 8.15L36.41 8.15L36.41 8.15Q36.37 7.94 36.29 7.75L36.29 7.75L36.29 7.75Q36.20 7.57 36.06 7.44L36.06 7.44L36.06 7.44Q35.92 7.32 35.73 7.32L35.73 7.32L35.73 7.32Q35.49 7.32 35.31 7.47L35.31 7.47L35.31 7.47Q35.14 7.62 35.02 7.85L35.02 7.85L35.02 7.85Q34.91 8.08 34.85 8.38L34.85 8.38L34.85 8.38Q34.78 8.67 34.75 8.98L34.75 8.98L34.75 8.98Q34.71 9.28 34.71 9.55L34.71 9.55L34.71 9.55Q34.70 9.83 34.70 10.02L34.70 10.02ZM41.67 8.07L41.67 8.07L41.67 8.07Q41.92 7.67 42.22 7.35L42.22 7.35L42.22 7.35Q42.34 7.21 42.49 7.08L42.49 7.08L42.49 7.08Q42.63 6.95 42.78 6.85L42.78 6.85L42.78 6.85Q42.94 6.75 43.10 6.69L43.10 6.69L43.10 6.69Q43.26 6.62 43.43 6.62L43.43 6.62L43.43 6.62Q43.78 6.62 43.98 6.83L43.98 6.83L43.98 6.83Q44.17 7.04 44.17 7.42L44.17 7.42L44.17 7.42Q44.17 7.65 44.14 7.86L44.14 7.86L44.14 7.86Q44.10 8.08 43.99 8.39L43.99 8.39L43.80 8.39L43.80 8.39Q43.76 8.18 43.61 8.04L43.61 8.04L43.61 8.04Q43.46 7.90 43.17 7.90L43.17 7.90L43.17 7.90Q42.96 7.90 42.75 7.97L42.75 7.97L42.75 7.97Q42.55 8.05 42.35 8.17L42.35 8.17L42.35 8.17Q42.16 8.29 41.98 8.42L41.98 8.42L41.98 8.42Q41.81 8.56 41.67 8.68L41.67 8.68L41.67 13.12L41.67 13.12Q41.67 13.21 41.64 13.33L41.64 13.33L41.64 13.33Q41.61 13.45 41.50 13.56L41.50 13.56L41.50 13.56Q41.40 13.67 41.19 13.75L41.19 13.75L41.19 13.75Q40.98 13.83 40.62 13.83L40.62 13.83L40.62 13.83Q40.26 13.83 40.05 13.74L40.05 13.74L40.05 13.74Q39.84 13.66 39.73 13.54L39.73 13.54L39.73 13.54Q39.62 13.43 39.59 13.30L39.59 13.30L39.59 13.30Q39.57 13.18 39.57 13.10L39.57 13.10L39.57 7.83L39.57 7.83Q39.57 7.63 39.47 7.48L39.47 7.48L39.47 7.48Q39.38 7.33 39.16 7.33L39.16 7.33L39.16 7.33Q39.05 7.33 38.96 7.38L38.96 7.38L38.96 7.38Q38.88 7.42 38.79 7.49L38.79 7.49L38.64 7.32L38.64 7.32Q38.80 7.19 39.00 7.06L39.00 7.06L39.00 7.06Q39.19 6.94 39.42 6.84L39.42 6.84L39.42 6.84Q39.64 6.75 39.90 6.69L39.90 6.69L39.90 6.69Q40.16 6.62 40.45 6.62L40.45 6.62L40.45 6.62Q40.74 6.62 40.95 6.70L40.95 6.70L40.95 6.70Q41.16 6.78 41.29 6.91L41.29 6.91L41.29 6.91Q41.43 7.03 41.50 7.19L41.50 7.19L41.50 7.19Q41.58 7.35 41.61 7.51L41.61 7.51L41.61 7.51Q41.65 7.67 41.66 7.82L41.66 7.82L41.66 7.82Q41.67 7.96 41.67 8.07ZM47.24 7.17L47.24 7.17L47.24 7.17Q47.08 7.17 46.94 7.21L46.94 7.21L46.94 7.21Q46.80 7.25 46.69 7.35L46.69 7.35L46.69 7.35Q46.58 7.44 46.52 7.58L46.52 7.58L46.52 7.58Q46.46 7.72 46.46 7.91L46.46 7.91L46.46 7.91Q46.46 8.18 46.65 8.44L46.65 8.44L46.65 8.44Q46.85 8.70 47.14 8.99L47.14 8.99L47.14 8.99Q47.43 9.27 47.77 9.57L47.77 9.57L47.77 9.57Q48.10 9.88 48.40 10.22L48.40 10.22L48.40 10.22Q48.69 10.55 48.88 10.94L48.88 10.94L48.88 10.94Q49.08 11.32 49.08 11.76L49.08 11.76L49.08 11.76Q49.08 12.25 48.91 12.63L48.91 12.63L48.91 12.63Q48.74 13.02 48.43 13.28L48.43 13.28L48.43 13.28Q48.12 13.55 47.68 13.69L47.68 13.69L47.68 13.69Q47.24 13.83 46.70 13.83L46.70 13.83L46.70 13.83Q46.22 13.83 45.84 13.70L45.84 13.70L45.84 13.70Q45.46 13.56 45.16 13.37L45.16 13.37L45.16 13.37Q44.86 13.17 44.65 12.95L44.65 12.95L44.65 12.95Q44.44 12.74 44.32 12.56L44.32 12.56L44.56 12.39L44.56 12.39Q44.65 12.49 44.79 12.61L44.79 12.61L44.79 12.61Q44.93 12.73 45.09 12.83L45.09 12.83L45.09 12.83Q45.26 12.93 45.45 13.00L45.45 13.00L45.45 13.00Q45.64 13.06 45.84 13.06L45.84 13.06L45.84 13.06Q46.33 13.06 46.65 12.83L46.65 12.83L46.65 12.83Q46.96 12.59 46.96 12.13L46.96 12.13L46.96 12.13Q46.96 11.87 46.79 11.59L46.79 11.59L46.79 11.59Q46.62 11.31 46.36 11.02L46.36 11.02L46.36 11.02Q46.10 10.73 45.80 10.41L45.80 10.41L45.80 10.41Q45.50 10.10 45.24 9.76L45.24 9.76L45.24 9.76Q44.98 9.43 44.81 9.07L44.81 9.07L44.81 9.07Q44.64 8.72 44.64 8.33L44.64 8.33L44.64 8.33Q44.64 7.90 44.81 7.58L44.81 7.58L44.81 7.58Q44.99 7.26 45.28 7.05L45.28 7.05L45.28 7.05Q45.57 6.84 45.94 6.73L45.94 6.73L45.94 6.73Q46.31 6.62 46.71 6.62L46.71 6.62L46.71 6.62Q47.17 6.62 47.54 6.71L47.54 6.71L47.54 6.71Q47.92 6.79 48.19 6.96L48.19 6.96L48.19 6.96Q48.46 7.12 48.61 7.38L48.61 7.38L48.61 7.38Q48.75 7.63 48.75 7.96L48.75 7.96L48.75 7.96Q48.75 8.22 48.58 8.42L48.58 8.42L48.58 8.42Q48.41 8.61 48.10 8.61L48.10 8.61L48.10 8.61Q47.81 8.61 47.66 8.48L47.66 8.48L47.66 8.48Q47.50 8.35 47.50 8.13L47.50 8.13L47.50 8.13Q47.50 7.99 47.57 7.91L47.57 7.91L47.57 7.91Q47.65 7.83 47.74 7.78L47.74 7.78L47.74 7.78Q47.82 7.72 47.90 7.69L47.90 7.69L47.90 7.69Q47.97 7.65 47.97 7.59L47.97 7.59L47.97 7.59Q47.97 7.40 47.76 7.28L47.76 7.28L47.76 7.28Q47.56 7.17 47.24 7.17ZM49.91 10.22L49.91 10.22L49.91 10.22Q49.91 9.32 50.17 8.65L50.17 8.65L50.17 8.65Q50.43 7.98 50.86 7.53L50.86 7.53L50.86 7.53Q51.30 7.08 51.87 6.85L51.87 6.85L51.87 6.85Q52.45 6.62 53.07 6.62L53.07 6.62L53.07 6.62Q53.70 6.62 54.28 6.83L54.28 6.83L54.28 6.83Q54.85 7.04 55.29 7.47L55.29 7.47L55.29 7.47Q55.72 7.90 55.98 8.56L55.98 8.56L55.98 8.56Q56.24 9.22 56.24 10.12L56.24 10.12L56.24 10.12Q56.24 11.02 55.98 11.71L55.98 11.71L55.98 11.71Q55.72 12.40 55.29 12.87L55.29 12.87L55.29 12.87Q54.85 13.34 54.28 13.59L54.28 13.59L54.28 13.59Q53.70 13.83 53.07 13.83L53.07 13.83L53.07 13.83Q52.45 13.83 51.87 13.60L51.87 13.60L51.87 13.60Q51.30 13.37 50.86 12.92L50.86 12.92L50.86 12.92Q50.43 12.47 50.17 11.79L50.17 11.79L50.17 11.79Q49.91 11.12 49.91 10.22ZM54.11 10.15L54.11 10.15L54.11 10.15Q54.11 9.60 54.08 9.10L54.08 9.10L54.08 9.10Q54.04 8.59 53.93 8.19L53.93 8.19L53.93 8.19Q53.82 7.79 53.61 7.56L53.61 7.56L53.61 7.56Q53.41 7.32 53.07 7.32L53.07 7.32L53.07 7.32Q52.74 7.32 52.53 7.57L52.53 7.57L52.53 7.57Q52.33 7.82 52.22 8.23L52.22 8.23L52.22 8.23Q52.11 8.63 52.08 9.15L52.08 9.15L52.08 9.15Q52.04 9.67 52.04 10.22L52.04 10.22L52.04 10.22Q52.04 10.77 52.08 11.29L52.08 11.29L52.08 11.29Q52.11 11.81 52.22 12.22L52.22 12.22L52.22 12.22Q52.33 12.63 52.53 12.88L52.53 12.88L52.53 12.88Q52.74 13.13 53.07 13.13L53.07 13.13L53.07 13.13Q53.41 13.13 53.61 12.87L53.61 12.87L53.61 12.87Q53.82 12.61 53.93 12.19L53.93 12.19L53.93 12.19Q54.04 11.76 54.08 11.23L54.08 11.23L54.08 11.23Q54.11 10.70 54.11 10.15ZM61.54 10.32L61.54 10.32L61.54 10.32Q61.54 9.45 61.46 8.94L61.46 8.94L61.46 8.94Q61.38 8.42 61.25 8.15L61.25 8.15L61.25 8.15Q61.12 7.88 60.96 7.80L60.96 7.80L60.96 7.80Q60.81 7.71 60.64 7.71L60.64 7.71L60.64 7.71Q60.44 7.71 60.29 7.82L60.29 7.82L60.29 7.82Q60.14 7.92 60.02 8.06L60.02 8.06L60.02 8.06Q59.91 8.20 59.83 8.33L59.83 8.33L59.83 8.33Q59.75 8.47 59.70 8.54L59.70 8.54L59.70 13.10L59.70 13.10Q59.70 13.19 59.67 13.32L59.67 13.32L59.67 13.32Q59.64 13.45 59.54 13.56L59.54 13.56L59.54 13.56Q59.43 13.67 59.22 13.75L59.22 13.75L59.22 13.75Q59.01 13.83 58.65 13.83L58.65 13.83L58.65 13.83Q58.29 13.83 58.08 13.74L58.08 13.74L58.08 13.74Q57.87 13.66 57.76 13.54L57.76 13.54L57.76 13.54Q57.65 13.43 57.63 13.30L57.63 13.30L57.63 13.30Q57.60 13.18 57.60 13.10L57.60 13.10L57.60 7.83L57.60 7.83Q57.60 7.63 57.51 7.48L57.51 7.48L57.51 7.48Q57.42 7.33 57.20 7.33L57.20 7.33L57.20 7.33Q57.08 7.33 57.00 7.38L57.00 7.38L57.00 7.38Q56.92 7.42 56.82 7.49L56.82 7.49L56.68 7.32L56.68 7.32Q56.83 7.19 57.03 7.06L57.03 7.06L57.03 7.06Q57.22 6.94 57.45 6.84L57.45 6.84L57.45 6.84Q57.67 6.75 57.93 6.69L57.93 6.69L57.93 6.69Q58.19 6.62 58.48 6.62L58.48 6.62L58.48 6.62Q58.93 6.62 59.17 6.77L59.17 6.77L59.17 6.77Q59.42 6.92 59.53 7.12L59.53 7.12L59.53 7.12Q59.65 7.33 59.67 7.55L59.67 7.55L59.67 7.55Q59.70 7.77 59.70 7.92L59.70 7.92L59.70 7.92Q59.95 7.56 60.27 7.27L60.27 7.27L60.27 7.27Q60.40 7.15 60.56 7.03L60.56 7.03L60.56 7.03Q60.72 6.92 60.90 6.83L60.90 6.83L60.90 6.83Q61.09 6.73 61.29 6.68L61.29 6.68L61.29 6.68Q61.49 6.62 61.70 6.62L61.70 6.62L61.70 6.62Q62.17 6.62 62.52 6.80L62.52 6.80L62.52 6.80Q62.88 6.98 63.13 7.40L63.13 7.40L63.13 7.40Q63.38 7.81 63.51 8.50L63.51 8.50L63.51 8.50Q63.64 9.19 63.64 10.21L63.64 10.21L63.64 10.21Q63.64 11.20 63.46 11.93L63.46 11.93L63.46 11.93Q63.28 12.66 62.99 13.17L62.99 13.17L62.99 13.17Q62.71 13.69 62.34 14.01L62.34 14.01L62.34 14.01Q61.98 14.33 61.61 14.52L61.61 14.52L61.61 14.52Q61.24 14.70 60.90 14.78L60.90 14.78L60.90 14.78Q60.57 14.85 60.32 14.85L60.32 14.85L60.25 14.57L60.25 14.57Q60.45 14.53 60.62 14.42L60.62 14.42L60.62 14.42Q60.80 14.32 60.94 14.12L60.94 14.12L60.94 14.12Q61.09 13.92 61.20 13.62L61.20 13.62L61.20 13.62Q61.30 13.32 61.38 12.86L61.38 12.86L61.38 12.86Q61.46 12.40 61.50 11.77L61.50 11.77L61.50 11.77Q61.54 11.15 61.54 10.32ZM72.54 8.99L72.54 8.99L72.54 8.99Q72.33 8.99 72.19 8.92L72.19 8.92L72.19 8.92Q72.04 8.86 71.96 8.75L71.96 8.75L71.96 8.75Q71.87 8.64 71.83 8.51L71.83 8.51L71.83 8.51Q71.78 8.37 71.78 8.23L71.78 8.23L71.78 8.23Q71.78 8.05 71.81 7.88L71.81 7.88L71.81 7.88Q71.83 7.70 71.81 7.57L71.81 7.57L71.81 7.57Q71.80 7.43 71.71 7.35L71.71 7.35L71.71 7.35Q71.62 7.27 71.39 7.27L71.39 7.27L71.39 7.27Q71.16 7.27 70.89 7.40L70.89 7.40L70.89 7.40Q70.62 7.54 70.40 7.83L70.40 7.83L70.40 7.83Q70.18 8.13 70.04 8.59L70.04 8.59L70.04 8.59Q69.90 9.05 69.90 9.70L69.90 9.70L69.90 9.70Q69.90 10.42 70.03 11.01L70.03 11.01L70.03 11.01Q70.16 11.60 70.43 12.02L70.43 12.02L70.43 12.02Q70.70 12.43 71.09 12.66L71.09 12.66L71.09 12.66Q71.49 12.89 72.02 12.89L72.02 12.89L72.02 12.89Q72.26 12.89 72.48 12.84L72.48 12.84L72.48 12.84Q72.69 12.78 72.88 12.69L72.88 12.69L72.88 12.69Q73.08 12.59 73.25 12.47L73.25 12.47L73.25 12.47Q73.42 12.34 73.59 12.20L73.59 12.20L73.76 12.36L73.76 12.36Q73.60 12.57 73.36 12.82L73.36 12.82L73.36 12.82Q73.11 13.08 72.76 13.30L72.76 13.30L72.76 13.30Q72.41 13.52 71.95 13.67L71.95 13.67L71.95 13.67Q71.48 13.82 70.89 13.82L70.89 13.82L70.89 13.82Q70.29 13.82 69.73 13.59L69.73 13.59L69.73 13.59Q69.17 13.36 68.73 12.92L68.73 12.92L68.73 12.92Q68.29 12.48 68.03 11.86L68.03 11.86L68.03 11.86Q67.76 11.23 67.76 10.43L67.76 10.43L67.76 10.43Q67.76 9.81 67.92 9.29L67.92 9.29L67.92 9.29Q68.08 8.76 68.35 8.34L68.35 8.34L68.35 8.34Q68.62 7.92 68.98 7.59L68.98 7.59L68.98 7.59Q69.34 7.27 69.73 7.06L69.73 7.06L69.73 7.06Q70.13 6.84 70.54 6.73L70.54 6.73L70.54 6.73Q70.96 6.62 71.34 6.62L71.34 6.62L71.34 6.62Q71.85 6.62 72.22 6.74L72.22 6.74L72.22 6.74Q72.60 6.86 72.85 7.05L72.85 7.05L72.85 7.05Q73.10 7.24 73.22 7.49L73.22 7.49L73.22 7.49Q73.34 7.74 73.34 8.00L73.34 8.00L73.34 8.00Q73.34 8.20 73.29 8.38L73.29 8.38L73.29 8.38Q73.24 8.57 73.14 8.70L73.14 8.70L73.14 8.70Q73.04 8.83 72.89 8.91L72.89 8.91L72.89 8.91Q72.74 8.99 72.54 8.99ZM77.76 11.85L77.76 10.18L77.76 10.18Q77.76 10.01 77.65 9.92L77.65 9.92L77.65 9.92Q77.54 9.83 77.37 9.83L77.37 9.83L77.37 9.83Q77.13 9.83 76.91 9.94L76.91 9.94L76.91 9.94Q76.70 10.05 76.54 10.26L76.54 10.26L76.54 10.26Q76.37 10.47 76.28 10.78L76.28 10.78L76.28 10.78Q76.18 11.09 76.18 11.50L76.18 11.50L76.18 11.50Q76.18 11.90 76.24 12.16L76.24 12.16L76.24 12.16Q76.30 12.42 76.40 12.57L76.40 12.57L76.40 12.57Q76.49 12.73 76.62 12.79L76.62 12.79L76.62 12.79Q76.75 12.85 76.90 12.85L76.90 12.85L76.90 12.85Q77.08 12.85 77.23 12.76L77.23 12.76L77.23 12.76Q77.39 12.67 77.51 12.52L77.51 12.52L77.51 12.52Q77.62 12.38 77.69 12.20L77.69 12.20L77.69 12.20Q77.76 12.02 77.76 11.85L77.76 11.85ZM76.67 7.18L76.67 7.18L76.67 7.18Q76.44 7.18 76.24 7.24L76.24 7.24L76.24 7.24Q76.04 7.29 75.90 7.38L75.90 7.38L75.90 7.38Q75.76 7.46 75.67 7.56L75.67 7.56L75.67 7.56Q75.59 7.66 75.59 7.75L75.59 7.75L75.59 7.75Q75.59 7.85 75.70 7.89L75.70 7.89L75.70 7.89Q75.80 7.94 75.93 7.99L75.93 7.99L75.93 7.99Q76.06 8.05 76.17 8.16L76.17 8.16L76.17 8.16Q76.28 8.26 76.28 8.48L76.28 8.48L76.28 8.48Q76.28 8.63 76.22 8.75L76.22 8.75L76.22 8.75Q76.16 8.87 76.06 8.96L76.06 8.96L76.06 8.96Q75.96 9.05 75.83 9.10L75.83 9.10L75.83 9.10Q75.69 9.15 75.55 9.15L75.55 9.15L75.55 9.15Q75.17 9.15 74.93 8.89L74.93 8.89L74.93 8.89Q74.70 8.63 74.70 8.20L74.70 8.20L74.70 8.20Q74.70 7.79 74.92 7.49L74.92 7.49L74.92 7.49Q75.13 7.19 75.49 7L75.49 7L75.49 7Q75.84 6.81 76.28 6.72L76.28 6.72L76.28 6.72Q76.73 6.62 77.17 6.62L77.17 6.62L77.17 6.62Q77.70 6.62 78.19 6.74L78.19 6.74L78.19 6.74Q78.67 6.86 79.05 7.11L79.05 7.11L79.05 7.11Q79.42 7.36 79.64 7.75L79.64 7.75L79.64 7.75Q79.86 8.14 79.86 8.70L79.86 8.70L79.86 12.56L79.86 12.56Q79.86 12.62 79.87 12.69L79.87 12.69L79.87 12.69Q79.88 12.77 79.91 12.83L79.91 12.83L79.91 12.83Q79.93 12.89 79.99 12.93L79.99 12.93L79.99 12.93Q80.04 12.97 80.14 12.97L80.14 12.97L80.14 12.97Q80.27 12.97 80.37 12.88L80.37 12.88L80.37 12.88Q80.48 12.79 80.56 12.69L80.56 12.69L80.73 12.84L80.73 12.84Q80.63 12.98 80.49 13.15L80.49 13.15L80.49 13.15Q80.34 13.32 80.14 13.47L80.14 13.47L80.14 13.47Q79.93 13.62 79.66 13.73L79.66 13.73L79.66 13.73Q79.39 13.83 79.04 13.83L79.04 13.83L79.04 13.83Q78.61 13.83 78.27 13.57L78.27 13.57L78.27 13.57Q77.94 13.32 77.83 12.78L77.83 12.78L77.83 12.78Q77.62 13.08 77.38 13.28L77.38 13.28L77.38 13.28Q77.14 13.47 76.90 13.60L76.90 13.60L76.90 13.60Q76.65 13.72 76.40 13.77L76.40 13.77L76.40 13.77Q76.15 13.83 75.90 13.83L75.90 13.83L75.90 13.83Q75.57 13.83 75.26 13.73L75.26 13.73L75.26 13.73Q74.96 13.62 74.71 13.40L74.71 13.40L74.71 13.40Q74.47 13.18 74.32 12.82L74.32 12.82L74.32 12.82Q74.18 12.47 74.18 11.96L74.18 11.96L74.18 11.96Q74.18 11.33 74.42 10.94L74.42 10.94L74.42 10.94Q74.67 10.54 75.07 10.27L75.07 10.27L75.07 10.27Q75.47 10.00 75.98 9.81L75.98 9.81L75.98 9.81Q76.49 9.62 77.02 9.41L77.02 9.41L77.02 9.41Q77.42 9.25 77.60 8.94L77.60 8.94L77.60 8.94Q77.78 8.63 77.78 8.30L77.78 8.30L77.78 8.30Q77.78 7.79 77.48 7.49L77.48 7.49L77.48 7.49Q77.18 7.18 76.67 7.18ZM83.85 7.17L83.85 7.17L83.85 7.17Q83.69 7.17 83.55 7.21L83.55 7.21L83.55 7.21Q83.41 7.25 83.30 7.35L83.30 7.35L83.30 7.35Q83.19 7.44 83.13 7.58L83.13 7.58L83.13 7.58Q83.07 7.72 83.07 7.91L83.07 7.91L83.07 7.91Q83.07 8.18 83.27 8.44L83.27 8.44L83.27 8.44Q83.46 8.70 83.75 8.99L83.75 8.99L83.75 8.99Q84.04 9.27 84.38 9.57L84.38 9.57L84.38 9.57Q84.72 9.88 85.01 10.22L85.01 10.22L85.01 10.22Q85.30 10.55 85.49 10.94L85.49 10.94L85.49 10.94Q85.69 11.32 85.69 11.76L85.69 11.76L85.69 11.76Q85.69 12.25 85.52 12.63L85.52 12.63L85.52 12.63Q85.35 13.02 85.04 13.28L85.04 13.28L85.04 13.28Q84.73 13.55 84.29 13.69L84.29 13.69L84.29 13.69Q83.85 13.83 83.31 13.83L83.31 13.83L83.31 13.83Q82.84 13.83 82.46 13.70L82.46 13.70L82.46 13.70Q82.07 13.56 81.77 13.37L81.77 13.37L81.77 13.37Q81.48 13.17 81.27 12.95L81.27 12.95L81.27 12.95Q81.05 12.74 80.94 12.56L80.94 12.56L81.18 12.39L81.18 12.39Q81.27 12.49 81.40 12.61L81.40 12.61L81.40 12.61Q81.54 12.73 81.71 12.83L81.71 12.83L81.71 12.83Q81.87 12.93 82.07 13.00L82.07 13.00L82.07 13.00Q82.26 13.06 82.46 13.06L82.46 13.06L82.46 13.06Q82.95 13.06 83.26 12.83L83.26 12.83L83.26 12.83Q83.58 12.59 83.58 12.13L83.58 12.13L83.58 12.13Q83.58 11.87 83.41 11.59L83.41 11.59L83.41 11.59Q83.23 11.31 82.97 11.02L82.97 11.02L82.97 11.02Q82.71 10.73 82.41 10.41L82.41 10.41L82.41 10.41Q82.11 10.10 81.85 9.76L81.85 9.76L81.85 9.76Q81.59 9.43 81.42 9.07L81.42 9.07L81.42 9.07Q81.25 8.72 81.25 8.33L81.25 8.33L81.25 8.33Q81.25 7.90 81.43 7.58L81.43 7.58L81.43 7.58Q81.60 7.26 81.89 7.05L81.89 7.05L81.89 7.05Q82.18 6.84 82.55 6.73L82.55 6.73L82.55 6.73Q82.93 6.62 83.32 6.62L83.32 6.62L83.32 6.62Q83.78 6.62 84.16 6.71L84.16 6.71L84.16 6.71Q84.53 6.79 84.80 6.96L84.80 6.96L84.80 6.96Q85.07 7.12 85.22 7.38L85.22 7.38L85.22 7.38Q85.37 7.63 85.37 7.96L85.37 7.96L85.37 7.96Q85.37 8.22 85.20 8.42L85.20 8.42L85.20 8.42Q85.03 8.61 84.72 8.61L84.72 8.61L84.72 8.61Q84.42 8.61 84.27 8.48L84.27 8.48L84.27 8.48Q84.12 8.35 84.12 8.13L84.12 8.13L84.12 8.13Q84.12 7.99 84.19 7.91L84.19 7.91L84.19 7.91Q84.26 7.83 84.35 7.78L84.35 7.78L84.35 7.78Q84.44 7.72 84.51 7.69L84.51 7.69L84.51 7.69Q84.58 7.65 84.58 7.59L84.58 7.59L84.58 7.59Q84.58 7.40 84.38 7.28L84.38 7.28L84.38 7.28Q84.17 7.17 83.85 7.17ZM90.10 7.21L89.04 7.21L89.04 12.26L89.04 12.26Q89.04 12.63 89.17 12.77L89.17 12.77L89.17 12.77Q89.31 12.91 89.55 12.91L89.55 12.91L89.55 12.91Q89.74 12.91 89.88 12.80L89.88 12.80L89.88 12.80Q90.02 12.70 90.13 12.57L90.13 12.57L90.13 12.57Q90.25 12.43 90.34 12.24L90.34 12.24L90.55 12.33L90.55 12.33Q90.45 12.55 90.31 12.81L90.31 12.81L90.31 12.81Q90.17 13.07 89.93 13.29L89.93 13.29L89.93 13.29Q89.70 13.51 89.35 13.67L89.35 13.67L89.35 13.67Q89.00 13.82 88.46 13.82L88.46 13.82L88.46 13.82Q88.16 13.82 87.89 13.73L87.89 13.73L87.89 13.73Q87.61 13.64 87.39 13.45L87.39 13.45L87.39 13.45Q87.18 13.25 87.05 12.97L87.05 12.97L87.05 12.97Q86.92 12.68 86.92 12.28L86.92 12.28L86.92 7.21L86.15 7.21L86.15 6.72L86.15 6.72Q86.34 6.72 86.69 6.62L86.69 6.62L86.69 6.62Q87.03 6.52 87.39 6.29L87.39 6.29L87.39 6.29Q87.75 6.06 88.05 5.67L88.05 5.67L88.05 5.67Q88.36 5.28 88.49 4.70L88.49 4.70L89.04 4.70L89.04 6.72L90.15 6.72L90.15 6.72Q90.70 6.72 90.70 6.54L90.70 6.54L90.70 6.54Q90.70 6.47 90.63 6.44L90.63 6.44L90.63 6.44Q90.56 6.42 90.48 6.38L90.48 6.38L90.48 6.38Q90.39 6.34 90.32 6.28L90.32 6.28L90.32 6.28Q90.25 6.21 90.25 6.05L90.25 6.05L90.25 6.05Q90.25 5.86 90.37 5.75L90.37 5.75L90.37 5.75Q90.49 5.64 90.69 5.64L90.69 5.64L90.69 5.64Q90.81 5.64 90.90 5.69L90.90 5.69L90.90 5.69Q90.99 5.74 91.05 5.83L91.05 5.83L91.05 5.83Q91.12 5.91 91.15 6.02L91.15 6.02L91.15 6.02Q91.18 6.13 91.18 6.24L91.18 6.24L91.18 6.24Q91.18 6.69 90.92 6.95L90.92 6.95L90.92 6.95Q90.67 7.21 90.10 7.21L90.10 7.21ZM93.72 8.07L93.72 8.07L93.72 8.07Q93.98 7.67 94.27 7.35L94.27 7.35L94.27 7.35Q94.40 7.21 94.54 7.08L94.54 7.08L94.54 7.08Q94.68 6.95 94.84 6.85L94.84 6.85L94.84 6.85Q94.99 6.75 95.16 6.69L95.16 6.69L95.16 6.69Q95.32 6.62 95.48 6.62L95.48 6.62L95.48 6.62Q95.83 6.62 96.03 6.83L96.03 6.83L96.03 6.83Q96.23 7.04 96.23 7.42L96.23 7.42L96.23 7.42Q96.23 7.65 96.19 7.86L96.19 7.86L96.19 7.86Q96.15 8.08 96.04 8.39L96.04 8.39L95.85 8.39L95.85 8.39Q95.81 8.18 95.66 8.04L95.66 8.04L95.66 8.04Q95.51 7.90 95.22 7.90L95.22 7.90L95.22 7.90Q95.01 7.90 94.81 7.97L94.81 7.97L94.81 7.97Q94.60 8.05 94.41 8.17L94.41 8.17L94.41 8.17Q94.21 8.29 94.04 8.42L94.04 8.42L94.04 8.42Q93.86 8.56 93.72 8.68L93.72 8.68L93.72 13.12L93.72 13.12Q93.72 13.21 93.69 13.33L93.69 13.33L93.69 13.33Q93.67 13.45 93.56 13.56L93.56 13.56L93.56 13.56Q93.45 13.67 93.25 13.75L93.25 13.75L93.25 13.75Q93.04 13.83 92.67 13.83L92.67 13.83L92.67 13.83Q92.31 13.83 92.10 13.74L92.10 13.74L92.10 13.74Q91.90 13.66 91.79 13.54L91.79 13.54L91.79 13.54Q91.68 13.43 91.65 13.30L91.65 13.30L91.65 13.30Q91.62 13.18 91.62 13.10L91.62 13.10L91.62 7.83L91.62 7.83Q91.62 7.63 91.53 7.48L91.53 7.48L91.53 7.48Q91.44 7.33 91.22 7.33L91.22 7.33L91.22 7.33Q91.10 7.33 91.02 7.38L91.02 7.38L91.02 7.38Q90.94 7.42 90.84 7.49L90.84 7.49L90.70 7.32L90.70 7.32Q90.86 7.19 91.05 7.06L91.05 7.06L91.05 7.06Q91.25 6.94 91.47 6.84L91.47 6.84L91.47 6.84Q91.70 6.75 91.96 6.69L91.96 6.69L91.96 6.69Q92.22 6.62 92.50 6.62L92.50 6.62L92.50 6.62Q92.80 6.62 93.01 6.70L93.01 6.70L93.01 6.70Q93.21 6.78 93.35 6.91L93.35 6.91L93.35 6.91Q93.48 7.03 93.56 7.19L93.56 7.19L93.56 7.19Q93.63 7.35 93.67 7.51L93.67 7.51L93.67 7.51Q93.71 7.67 93.71 7.82L93.71 7.82L93.71 7.82Q93.72 7.96 93.72 8.07ZM96.52 10.22L96.52 10.22L96.52 10.22Q96.52 9.32 96.78 8.65L96.78 8.65L96.78 8.65Q97.04 7.98 97.48 7.53L97.48 7.53L97.48 7.53Q97.91 7.08 98.49 6.85L98.49 6.85L98.49 6.85Q99.06 6.62 99.69 6.62L99.69 6.62L99.69 6.62Q100.32 6.62 100.89 6.83L100.89 6.83L100.89 6.83Q101.47 7.04 101.90 7.47L101.90 7.47L101.90 7.47Q102.33 7.90 102.59 8.56L102.59 8.56L102.59 8.56Q102.85 9.22 102.85 10.12L102.85 10.12L102.85 10.12Q102.85 11.02 102.59 11.71L102.59 11.71L102.59 11.71Q102.33 12.40 101.90 12.87L101.90 12.87L101.90 12.87Q101.47 13.34 100.89 13.59L100.89 13.59L100.89 13.59Q100.32 13.83 99.69 13.83L99.69 13.83L99.69 13.83Q99.06 13.83 98.49 13.60L98.49 13.60L98.49 13.60Q97.91 13.37 97.48 12.92L97.48 12.92L97.48 12.92Q97.04 12.47 96.78 11.79L96.78 11.79L96.78 11.79Q96.52 11.12 96.52 10.22ZM100.73 10.15L100.73 10.15L100.73 10.15Q100.73 9.60 100.69 9.10L100.69 9.10L100.69 9.10Q100.65 8.59 100.54 8.19L100.54 8.19L100.54 8.19Q100.43 7.79 100.23 7.56L100.23 7.56L100.23 7.56Q100.02 7.32 99.69 7.32L99.69 7.32L99.69 7.32Q99.35 7.32 99.15 7.57L99.15 7.57L99.15 7.57Q98.94 7.82 98.83 8.23L98.83 8.23L98.83 8.23Q98.72 8.63 98.69 9.15L98.69 9.15L98.69 9.15Q98.66 9.67 98.66 10.22L98.66 10.22L98.66 10.22Q98.66 10.77 98.69 11.29L98.69 11.29L98.69 11.29Q98.72 11.81 98.83 12.22L98.83 12.22L98.83 12.22Q98.94 12.63 99.15 12.88L99.15 12.88L99.15 12.88Q99.35 13.13 99.69 13.13L99.69 13.13L99.69 13.13Q100.02 13.13 100.23 12.87L100.23 12.87L100.23 12.87Q100.43 12.61 100.54 12.19L100.54 12.19L100.54 12.19Q100.65 11.76 100.69 11.23L100.69 11.23L100.69 11.23Q100.73 10.70 100.73 10.15Z"></path></g><!----><!----><g data-v-423bf9ae="" id="37adda5c-3323-4b49-b73e-88a960ffcfcd" fill="#ffffff" transform="matrix(5.882352352142334,0,0,5.882352352142334,-7.82353401184082,99.5882339477539)"><path d="M1.33 15.68L1.33 5.88L7.35 5.88L7.35 6.97L2.51 6.97L2.51 10.22L7.27 10.22L7.27 11.31L2.51 11.31L2.51 15.68L1.33 15.68ZM22.92 12.15L22.92 15.68L21.74 15.68L21.74 12.40L21.74 12.40Q21.74 12.04 21.57 11.84L21.57 11.84L21.57 11.84Q21.41 11.65 20.99 11.65L20.99 11.65L17.93 11.65L17.93 15.68L16.76 15.68L16.76 5.88L20.26 5.88L20.26 5.88Q21.01 5.88 21.57 6.10L21.57 6.10L21.57 6.10Q22.13 6.31 22.50 6.68L22.50 6.68L22.50 6.68Q22.88 7.04 23.06 7.53L23.06 7.53L23.06 7.53Q23.25 8.01 23.25 8.54L23.25 8.54L23.25 8.96L23.25 8.96Q23.25 9.51 22.95 10.05L22.95 10.05L22.95 10.05Q22.65 10.60 22.02 10.89L22.02 10.89L22.02 11.06L22.02 11.06Q22.44 11.13 22.68 11.40L22.68 11.40L22.68 11.40Q22.92 11.66 22.92 12.15L22.92 12.15ZM17.93 6.97L17.93 10.56L20.12 10.56L20.12 10.56Q21.11 10.56 21.59 10.13L21.59 10.13L21.59 10.13Q22.08 9.70 22.08 8.88L22.08 8.88L22.08 8.62L22.08 8.62Q22.08 7.88 21.59 7.43L21.59 7.43L21.59 7.43Q21.11 6.97 20.12 6.97L20.12 6.97L17.93 6.97ZM31.98 11.87L31.98 9.69L31.98 9.69Q31.98 7.78 32.89 6.73L32.89 6.73L32.89 6.73Q33.80 5.68 35.42 5.68L35.42 5.68L35.42 5.68Q37.04 5.68 37.95 6.73L37.95 6.73L37.95 6.73Q38.86 7.78 38.86 9.69L38.86 9.69L38.86 11.87L38.86 11.87Q38.86 13.83 37.95 14.85L37.95 14.85L37.95 14.85Q37.04 15.88 35.42 15.88L35.42 15.88L35.42 15.88Q33.80 15.88 32.89 14.85L32.89 14.85L32.89 14.85Q31.98 13.83 31.98 11.87L31.98 11.87ZM35.42 14.78L35.42 14.78L35.42 14.78Q36.55 14.78 37.12 14.01L37.12 14.01L37.12 14.01Q37.69 13.23 37.69 11.79L37.69 11.79L37.69 9.77L37.69 9.77Q37.69 8.43 37.12 7.60L37.12 7.60L37.12 7.60Q36.55 6.78 35.42 6.78L35.42 6.78L35.42 6.78Q34.29 6.78 33.72 7.60L33.72 7.60L33.72 7.60Q33.15 8.43 33.15 9.77L33.15 9.77L33.15 11.79L33.15 11.79Q33.15 13.23 33.72 14.01L33.72 14.01L33.72 14.01Q34.29 14.78 35.42 14.78ZM50.08 5.88L52.91 15.18L53.07 15.18L53.07 5.88L54.25 5.88L54.25 15.68L51.90 15.68L49.07 6.38L48.90 6.38L48.90 15.68L47.73 15.68L47.73 5.88L50.08 5.88ZM63.11 6.97L63.11 5.88L70 5.88L70 6.97L67.14 6.97L67.14 15.68L65.97 15.68L65.97 6.97L63.11 6.97ZM80.02 12.54L80.02 11.54L84.22 11.54L84.22 12.54L80.02 12.54ZM94.72 15.68L94.72 5.88L100.66 5.88L100.66 6.97L95.90 6.97L95.90 10.22L100.58 10.22L100.58 11.31L95.90 11.31L95.90 14.59L100.74 14.59L100.74 15.68L94.72 15.68ZM112.35 5.88L115.18 15.18L115.35 15.18L115.35 5.88L116.52 5.88L116.52 15.68L114.17 15.68L111.34 6.38L111.17 6.38L111.17 15.68L110.00 15.68L110.00 5.88L112.35 5.88ZM125.57 6.97L125.57 5.88L128.79 5.88L128.79 5.88Q130.61 5.88 131.45 6.75L131.45 6.75L131.45 6.75Q132.29 7.62 132.29 9.52L132.29 9.52L132.29 12.04L132.29 12.04Q132.29 13.94 131.45 14.81L131.45 14.81L131.45 14.81Q130.61 15.68 128.79 15.68L128.79 15.68L125.57 15.68L125.57 14.57L126.41 14.57L126.41 6.97L125.57 6.97ZM127.58 14.59L128.62 14.59L128.62 14.59Q129.26 14.59 129.73 14.46L129.73 14.46L129.73 14.46Q130.20 14.34 130.51 14.04L130.51 14.04L130.51 14.04Q130.82 13.73 130.96 13.23L130.96 13.23L130.96 13.23Q131.11 12.73 131.11 11.96L131.11 11.96L131.11 9.60L131.11 9.60Q131.11 8.83 130.96 8.33L130.96 8.33L130.96 8.33Q130.82 7.83 130.51 7.53L130.51 7.53L130.51 7.53Q130.20 7.22 129.73 7.10L129.73 7.10L129.73 7.10Q129.26 6.97 128.62 6.97L128.62 6.97L127.58 6.97L127.58 14.59ZM156.70 6.97L156.70 5.88L159.92 5.88L159.92 5.88Q161.74 5.88 162.58 6.75L162.58 6.75L162.58 6.75Q163.42 7.62 163.42 9.52L163.42 9.52L163.42 12.04L163.42 12.04Q163.42 13.94 162.58 14.81L162.58 14.81L162.58 14.81Q161.74 15.68 159.92 15.68L159.92 15.68L156.70 15.68L156.70 14.57L157.54 14.57L157.54 6.97L156.70 6.97ZM158.72 14.59L159.75 14.59L159.75 14.59Q160.40 14.59 160.87 14.46L160.87 14.46L160.87 14.46Q161.34 14.34 161.64 14.04L161.64 14.04L161.64 14.04Q161.95 13.73 162.10 13.23L162.10 13.23L162.10 13.23Q162.25 12.73 162.25 11.96L162.25 11.96L162.25 9.60L162.25 9.60Q162.25 8.83 162.10 8.33L162.10 8.33L162.10 8.33Q161.95 7.83 161.64 7.53L161.64 7.53L161.64 7.53Q161.34 7.22 160.87 7.10L160.87 7.10L160.87 7.10Q160.40 6.97 159.75 6.97L159.75 6.97L158.72 6.97L158.72 14.59ZM172.56 15.68L172.56 5.88L178.50 5.88L178.50 6.97L173.74 6.97L173.74 10.22L178.42 10.22L178.42 11.31L173.74 11.31L173.74 14.59L178.58 14.59L178.58 15.68L172.56 15.68ZM189.97 15.68L187.19 5.88L188.45 5.88L191.02 15.18L191.18 15.18L193.75 5.88L195.01 5.88L192.23 15.68L189.97 15.68ZM203.70 15.68L203.70 5.88L209.64 5.88L209.64 6.97L204.88 6.97L204.88 10.22L209.55 10.22L209.55 11.31L204.88 11.31L204.88 14.59L209.72 14.59L209.72 15.68L203.70 15.68ZM219.17 15.68L219.17 5.88L220.35 5.88L220.35 14.59L225.47 14.59L225.47 15.68L219.17 15.68ZM234.36 11.87L234.36 9.69L234.36 9.69Q234.36 7.78 235.27 6.73L235.27 6.73L235.27 6.73Q236.18 5.68 237.80 5.68L237.80 5.68L237.80 5.68Q239.43 5.68 240.34 6.73L240.34 6.73L240.34 6.73Q241.25 7.78 241.25 9.69L241.25 9.69L241.25 11.87L241.25 11.87Q241.25 13.83 240.34 14.85L240.34 14.85L240.34 14.85Q239.43 15.88 237.80 15.88L237.80 15.88L237.80 15.88Q236.18 15.88 235.27 14.85L235.27 14.85L235.27 14.85Q234.36 13.83 234.36 11.87L234.36 11.87ZM237.80 14.78L237.80 14.78L237.80 14.78Q238.94 14.78 239.51 14.01L239.51 14.01L239.51 14.01Q240.07 13.23 240.07 11.79L240.07 11.79L240.07 9.77L240.07 9.77Q240.07 8.43 239.51 7.60L239.51 7.60L239.51 7.60Q238.94 6.78 237.80 6.78L237.80 6.78L237.80 6.78Q236.67 6.78 236.10 7.60L236.10 7.60L236.10 7.60Q235.54 8.43 235.54 9.77L235.54 9.77L235.54 11.79L235.54 11.79Q235.54 13.23 236.10 14.01L236.10 14.01L236.10 14.01Q236.67 14.78 237.80 14.78ZM253.78 11.65L251.45 11.65L251.45 15.68L250.28 15.68L250.28 5.88L253.78 5.88L253.78 5.88Q254.53 5.88 255.09 6.10L255.09 6.10L255.09 6.10Q255.65 6.31 256.03 6.68L256.03 6.68L256.03 6.68Q256.40 7.04 256.59 7.53L256.59 7.53L256.59 7.53Q256.77 8.01 256.77 8.54L256.77 8.54L256.77 8.96L256.77 8.96Q256.77 9.49 256.59 9.98L256.59 9.98L256.59 9.98Q256.40 10.47 256.02 10.84L256.02 10.84L256.02 10.84Q255.64 11.21 255.08 11.43L255.08 11.43L255.08 11.43Q254.52 11.65 253.78 11.65L253.78 11.65ZM251.45 6.97L251.45 10.56L253.64 10.56L253.64 10.56Q255.60 10.56 255.60 8.88L255.60 8.88L255.60 8.62L255.60 8.62Q255.60 7.88 255.12 7.43L255.12 7.43L255.12 7.43Q254.63 6.97 253.64 6.97L253.64 6.97L251.45 6.97ZM265.97 15.68L265.97 5.88L271.91 5.88L271.91 6.97L267.15 6.97L267.15 10.22L271.82 10.22L271.82 11.31L267.15 11.31L267.15 14.59L271.99 14.59L271.99 15.68L265.97 15.68ZM287.57 12.15L287.57 15.68L286.40 15.68L286.40 12.40L286.40 12.40Q286.40 12.04 286.23 11.84L286.23 11.84L286.23 11.84Q286.06 11.65 285.64 11.65L285.64 11.65L282.59 11.65L282.59 15.68L281.41 15.68L281.41 5.88L284.91 5.88L284.91 5.88Q285.67 5.88 286.23 6.10L286.23 6.10L286.23 6.10Q286.79 6.31 287.16 6.68L287.16 6.68L287.16 6.68Q287.53 7.04 287.72 7.53L287.72 7.53L287.72 7.53Q287.91 8.01 287.91 8.54L287.91 8.54L287.91 8.96L287.91 8.96Q287.91 9.51 287.61 10.05L287.61 10.05L287.61 10.05Q287.31 10.60 286.68 10.89L286.68 10.89L286.68 11.06L286.68 11.06Q287.10 11.13 287.34 11.40L287.34 11.40L287.34 11.40Q287.57 11.66 287.57 12.15L287.57 12.15ZM282.59 6.97L282.59 10.56L284.77 10.56L284.77 10.56Q285.77 10.56 286.25 10.13L286.25 10.13L286.25 10.13Q286.73 9.70 286.73 8.88L286.73 8.88L286.73 8.62L286.73 8.62Q286.73 7.88 286.25 7.43L286.25 7.43L286.25 7.43Q285.77 6.97 284.77 6.97L284.77 6.97L282.59 6.97Z"></path></g></svg>